<mxfile host="Electron" agent="Mozilla/5.0 (Macintosh; Intel Mac OS X 10_15_7) AppleWebKit/537.36 (KHTML, like Gecko) draw.io/27.0.5 Chrome/134.0.6998.205 Electron/35.3.0 Safari/537.36" version="27.0.5">
  <diagram name="第 1 页" id="uEibjvDr8uc1TY9ruTUn">
    <mxGraphModel dx="706" dy="604" grid="1" gridSize="10" guides="1" tooltips="1" connect="1" arrows="1" fold="1" page="1" pageScale="1" pageWidth="827" pageHeight="1169" math="0" shadow="0">
      <root>
        <mxCell id="0" />
        <mxCell id="1" parent="0" />
        <mxCell id="amXWST7B3BwliGPZbZjy-16" value="" style="rounded=0;whiteSpace=wrap;html=1;" parent="1" vertex="1">
          <mxGeometry x="130" y="150" width="260" height="155" as="geometry" />
        </mxCell>
        <mxCell id="QJOgdPk48UH-hE7zh8gi-16" value="" style="rounded=0;whiteSpace=wrap;html=1;" parent="1" vertex="1">
          <mxGeometry x="135" y="230" width="105" height="70" as="geometry" />
        </mxCell>
        <mxCell id="amXWST7B3BwliGPZbZjy-4" value="" style="shape=note;whiteSpace=wrap;html=1;backgroundOutline=1;darkOpacity=0.05;size=19;" parent="1" vertex="1">
          <mxGeometry x="310" y="212.5" width="60" height="50" as="geometry" />
        </mxCell>
        <mxCell id="amXWST7B3BwliGPZbZjy-5" value="" style="shape=note;whiteSpace=wrap;html=1;backgroundOutline=1;darkOpacity=0.05;size=19;" parent="1" vertex="1">
          <mxGeometry x="315" y="217.5" width="60" height="50" as="geometry" />
        </mxCell>
        <mxCell id="amXWST7B3BwliGPZbZjy-6" value="&lt;font face=&quot;楷体-简&quot;&gt;工作协程&lt;/font&gt;" style="shape=note;whiteSpace=wrap;html=1;backgroundOutline=1;darkOpacity=0.05;size=19;" parent="1" vertex="1">
          <mxGeometry x="320" y="222.5" width="60" height="50" as="geometry" />
        </mxCell>
        <mxCell id="amXWST7B3BwliGPZbZjy-9" value="" style="rounded=0;whiteSpace=wrap;html=1;fillColor=#eeeeee;strokeColor=#36393d;" parent="1" vertex="1">
          <mxGeometry x="140" y="250" width="90" height="30" as="geometry" />
        </mxCell>
        <mxCell id="amXWST7B3BwliGPZbZjy-10" value="" style="rounded=0;whiteSpace=wrap;html=1;fillColor=#eeeeee;strokeColor=#36393d;" parent="1" vertex="1">
          <mxGeometry x="145" y="255" width="90" height="30" as="geometry" />
        </mxCell>
        <mxCell id="amXWST7B3BwliGPZbZjy-11" value="&lt;font face=&quot;楷体-简&quot;&gt;就绪队列&lt;/font&gt;" style="rounded=0;whiteSpace=wrap;html=1;fillColor=#eeeeee;strokeColor=#36393d;" parent="1" vertex="1">
          <mxGeometry x="150" y="260" width="90" height="30" as="geometry" />
        </mxCell>
        <mxCell id="amXWST7B3BwliGPZbZjy-12" value="" style="endArrow=none;dashed=1;html=1;dashPattern=1 3;strokeWidth=2;rounded=0;" parent="1" source="amXWST7B3BwliGPZbZjy-11" target="amXWST7B3BwliGPZbZjy-6" edge="1">
          <mxGeometry width="50" height="50" relative="1" as="geometry">
            <mxPoint x="240" y="310" as="sourcePoint" />
            <mxPoint x="290" y="260" as="targetPoint" />
          </mxGeometry>
        </mxCell>
        <mxCell id="amXWST7B3BwliGPZbZjy-15" value="&lt;b&gt;&lt;font face=&quot;Times New Roman&quot;&gt;UINTC/TAIC&lt;/font&gt;&lt;/b&gt;" style="rounded=0;whiteSpace=wrap;html=1;fillColor=#CCCCCC;strokeColor=#36393d;strokeWidth=2;container=0;shadow=1;" parent="1" vertex="1">
          <mxGeometry x="130" y="330" width="530" height="40" as="geometry" />
        </mxCell>
        <mxCell id="amXWST7B3BwliGPZbZjy-19" value="" style="html=1;verticalLabelPosition=bottom;align=center;labelBackgroundColor=#ffffff;verticalAlign=top;strokeWidth=2;strokeColor=#666666;shadow=0;dashed=0;shape=mxgraph.ios7.icons.reload;rotation=135;fillColor=#f5f5f5;gradientColor=#b3b3b3;" parent="1" vertex="1">
          <mxGeometry x="173" y="203" width="24" height="27" as="geometry" />
        </mxCell>
        <mxCell id="amXWST7B3BwliGPZbZjy-20" value="&lt;font face=&quot;Times New Roman&quot;&gt;Fetch Loop&lt;/font&gt;" style="text;html=1;align=center;verticalAlign=middle;whiteSpace=wrap;rounded=0;" parent="1" vertex="1">
          <mxGeometry x="157.5" y="175" width="60" height="30" as="geometry" />
        </mxCell>
        <mxCell id="amXWST7B3BwliGPZbZjy-21" value="" style="endArrow=classic;html=1;rounded=0;exitX=0.5;exitY=1;exitDx=0;exitDy=0;exitPerimeter=0;" parent="1" source="amXWST7B3BwliGPZbZjy-6" edge="1">
          <mxGeometry width="50" height="50" relative="1" as="geometry">
            <mxPoint x="320" y="310" as="sourcePoint" />
            <mxPoint x="310" y="329" as="targetPoint" />
            <Array as="points">
              <mxPoint x="350" y="290" />
              <mxPoint x="310" y="290" />
            </Array>
          </mxGeometry>
        </mxCell>
        <mxCell id="amXWST7B3BwliGPZbZjy-22" value="&lt;span style=&quot;font-size: 10px;&quot;&gt;&lt;font face=&quot;宋体-简&quot;&gt;&lt;i&gt;注册接收端&lt;/i&gt;&lt;/font&gt;&lt;/span&gt;" style="text;html=1;align=center;verticalAlign=middle;whiteSpace=wrap;rounded=0;" parent="1" vertex="1">
          <mxGeometry x="297.5" y="300" width="95" height="30" as="geometry" />
        </mxCell>
        <mxCell id="amXWST7B3BwliGPZbZjy-34" value="&lt;b style=&quot;&quot;&gt;&lt;font face=&quot;Times New Roman&quot;&gt;App1 &lt;/font&gt;&lt;font face=&quot;楷体-简&quot;&gt;执行器&lt;/font&gt;&lt;/b&gt;" style="text;html=1;align=center;verticalAlign=middle;whiteSpace=wrap;rounded=0;" parent="1" vertex="1">
          <mxGeometry x="147.5" y="153" width="80" height="30" as="geometry" />
        </mxCell>
        <mxCell id="amXWST7B3BwliGPZbZjy-38" value="" style="endArrow=none;dashed=1;html=1;dashPattern=1 3;strokeWidth=2;rounded=0;entryX=0.25;entryY=1;entryDx=0;entryDy=0;exitX=0.937;exitY=0.965;exitDx=0;exitDy=0;exitPerimeter=0;strokeColor=light-dark(#f50000, #ededed);" parent="1" source="amXWST7B3BwliGPZbZjy-39" target="amXWST7B3BwliGPZbZjy-11" edge="1">
          <mxGeometry width="50" height="50" relative="1" as="geometry">
            <mxPoint x="170" y="330" as="sourcePoint" />
            <mxPoint x="370" y="290" as="targetPoint" />
          </mxGeometry>
        </mxCell>
        <mxCell id="amXWST7B3BwliGPZbZjy-39" value="&lt;i style=&quot;&quot;&gt;&lt;font face=&quot;楷体-简&quot;&gt;绑定&lt;/font&gt;&lt;/i&gt;" style="text;html=1;align=center;verticalAlign=middle;whiteSpace=wrap;rounded=0;" parent="1" vertex="1">
          <mxGeometry x="115" y="295" width="60" height="35" as="geometry" />
        </mxCell>
        <mxCell id="amXWST7B3BwliGPZbZjy-40" value="&lt;i&gt;&lt;font face=&quot;楷体-简&quot;&gt;绑定&lt;/font&gt;&lt;/i&gt;" style="text;html=1;align=center;verticalAlign=middle;whiteSpace=wrap;rounded=0;" parent="1" vertex="1">
          <mxGeometry x="270" y="232.5" width="60" height="35" as="geometry" />
        </mxCell>
        <mxCell id="amXWST7B3BwliGPZbZjy-41" value="" style="endArrow=classic;html=1;rounded=0;exitX=0.121;exitY=-0.03;exitDx=0;exitDy=0;exitPerimeter=0;entryX=0.5;entryY=1;entryDx=0;entryDy=0;strokeColor=light-dark(#f50505, #ededed);" parent="1" source="amXWST7B3BwliGPZbZjy-15" target="amXWST7B3BwliGPZbZjy-11" edge="1">
          <mxGeometry width="50" height="50" relative="1" as="geometry">
            <mxPoint x="140" y="470" as="sourcePoint" />
            <mxPoint x="190" y="420" as="targetPoint" />
          </mxGeometry>
        </mxCell>
        <mxCell id="amXWST7B3BwliGPZbZjy-44" value="&lt;font style=&quot;font-size: 10px;&quot;&gt;&lt;font face=&quot;Times New Roman&quot;&gt;③&lt;/font&gt;&lt;font face=&quot;宋体-简&quot;&gt;&lt;i&gt;唤醒&lt;/i&gt;&lt;/font&gt;&lt;/font&gt;" style="text;html=1;align=center;verticalAlign=middle;whiteSpace=wrap;rounded=0;" parent="1" vertex="1">
          <mxGeometry x="195" y="300" width="75" height="30" as="geometry" />
        </mxCell>
        <mxCell id="QJOgdPk48UH-hE7zh8gi-2" value="&lt;font face=&quot;宋体-简&quot;&gt;分发协程&lt;/font&gt;" style="shape=note;whiteSpace=wrap;html=1;backgroundOutline=1;darkOpacity=0.05;size=19;" parent="1" vertex="1">
          <mxGeometry x="240" y="175" width="60" height="50" as="geometry" />
        </mxCell>
        <mxCell id="QJOgdPk48UH-hE7zh8gi-3" value="" style="endArrow=none;dashed=1;html=1;dashPattern=1 3;strokeWidth=2;rounded=0;exitX=0.966;exitY=-0.091;exitDx=0;exitDy=0;entryX=0.404;entryY=0.989;entryDx=0;entryDy=0;entryPerimeter=0;exitPerimeter=0;" parent="1" source="amXWST7B3BwliGPZbZjy-9" target="QJOgdPk48UH-hE7zh8gi-2" edge="1">
          <mxGeometry width="50" height="50" relative="1" as="geometry">
            <mxPoint x="250" y="277" as="sourcePoint" />
            <mxPoint x="330" y="263" as="targetPoint" />
          </mxGeometry>
        </mxCell>
        <mxCell id="QJOgdPk48UH-hE7zh8gi-4" value="" style="endArrow=classic;html=1;rounded=0;exitX=0.731;exitY=0.979;exitDx=0;exitDy=0;exitPerimeter=0;" parent="1" source="QJOgdPk48UH-hE7zh8gi-2" edge="1">
          <mxGeometry width="50" height="50" relative="1" as="geometry">
            <mxPoint x="380" y="350" as="sourcePoint" />
            <mxPoint x="310" y="330" as="targetPoint" />
            <Array as="points">
              <mxPoint x="284" y="290" />
              <mxPoint x="310" y="290" />
            </Array>
          </mxGeometry>
        </mxCell>
        <mxCell id="QJOgdPk48UH-hE7zh8gi-5" value="&lt;font face=&quot;Times New Roman&quot;&gt;1&lt;/font&gt;" style="rounded=0;whiteSpace=wrap;html=1;fillColor=#fff2cc;strokeColor=#d6b656;" parent="1" vertex="1">
          <mxGeometry x="145" y="232.5" width="10" height="10" as="geometry" />
        </mxCell>
        <mxCell id="QJOgdPk48UH-hE7zh8gi-7" value="&lt;font face=&quot;Times New Roman&quot;&gt;0&lt;/font&gt;" style="rounded=0;whiteSpace=wrap;html=1;fillColor=#fff2cc;strokeColor=#d6b656;" parent="1" vertex="1">
          <mxGeometry x="155" y="232.5" width="10" height="10" as="geometry" />
        </mxCell>
        <mxCell id="QJOgdPk48UH-hE7zh8gi-10" value="&lt;font face=&quot;Times New Roman&quot;&gt;1&lt;/font&gt;" style="rounded=0;whiteSpace=wrap;html=1;fillColor=#fff2cc;strokeColor=#d6b656;" parent="1" vertex="1">
          <mxGeometry x="165" y="232.5" width="10" height="10" as="geometry" />
        </mxCell>
        <mxCell id="QJOgdPk48UH-hE7zh8gi-11" value="&lt;font face=&quot;Times New Roman&quot;&gt;1&lt;/font&gt;" style="rounded=0;whiteSpace=wrap;html=1;fillColor=#fff2cc;strokeColor=#d6b656;" parent="1" vertex="1">
          <mxGeometry x="175" y="232.5" width="10" height="10" as="geometry" />
        </mxCell>
        <mxCell id="QJOgdPk48UH-hE7zh8gi-12" value="&lt;font face=&quot;Times New Roman&quot;&gt;0&lt;/font&gt;" style="rounded=0;whiteSpace=wrap;html=1;fillColor=#fff2cc;strokeColor=#d6b656;" parent="1" vertex="1">
          <mxGeometry x="185" y="232.5" width="10" height="10" as="geometry" />
        </mxCell>
        <mxCell id="QJOgdPk48UH-hE7zh8gi-13" value="&lt;font face=&quot;Times New Roman&quot;&gt;0&lt;/font&gt;" style="rounded=0;whiteSpace=wrap;html=1;fillColor=#fff2cc;strokeColor=#d6b656;" parent="1" vertex="1">
          <mxGeometry x="195" y="232.5" width="10" height="10" as="geometry" />
        </mxCell>
        <mxCell id="QJOgdPk48UH-hE7zh8gi-14" value="&lt;font face=&quot;Times New Roman&quot;&gt;0&lt;/font&gt;" style="rounded=0;whiteSpace=wrap;html=1;fillColor=#fff2cc;strokeColor=#d6b656;" parent="1" vertex="1">
          <mxGeometry x="205" y="232.5" width="10" height="10" as="geometry" />
        </mxCell>
        <mxCell id="QJOgdPk48UH-hE7zh8gi-15" value="&lt;font face=&quot;Times New Roman&quot;&gt;1&lt;/font&gt;" style="rounded=0;whiteSpace=wrap;html=1;fillColor=#fff2cc;strokeColor=#d6b656;" parent="1" vertex="1">
          <mxGeometry x="215" y="232.5" width="10" height="10" as="geometry" />
        </mxCell>
        <mxCell id="QJOgdPk48UH-hE7zh8gi-17" value="" style="rounded=0;whiteSpace=wrap;html=1;" parent="1" vertex="1">
          <mxGeometry x="400" y="150" width="260" height="155" as="geometry" />
        </mxCell>
        <mxCell id="QJOgdPk48UH-hE7zh8gi-18" value="" style="rounded=0;whiteSpace=wrap;html=1;" parent="1" vertex="1">
          <mxGeometry x="405" y="230" width="105" height="70" as="geometry" />
        </mxCell>
        <mxCell id="QJOgdPk48UH-hE7zh8gi-19" value="" style="shape=note;whiteSpace=wrap;html=1;backgroundOutline=1;darkOpacity=0.05;size=19;" parent="1" vertex="1">
          <mxGeometry x="580" y="212.5" width="60" height="50" as="geometry" />
        </mxCell>
        <mxCell id="QJOgdPk48UH-hE7zh8gi-20" value="" style="shape=note;whiteSpace=wrap;html=1;backgroundOutline=1;darkOpacity=0.05;size=19;" parent="1" vertex="1">
          <mxGeometry x="585" y="217.5" width="60" height="50" as="geometry" />
        </mxCell>
        <mxCell id="QJOgdPk48UH-hE7zh8gi-21" value="&lt;span style=&quot;font-family: 楷体-简;&quot;&gt;工作协程&lt;/span&gt;" style="shape=note;whiteSpace=wrap;html=1;backgroundOutline=1;darkOpacity=0.05;size=19;" parent="1" vertex="1">
          <mxGeometry x="590" y="222.5" width="60" height="50" as="geometry" />
        </mxCell>
        <mxCell id="QJOgdPk48UH-hE7zh8gi-22" value="" style="rounded=0;whiteSpace=wrap;html=1;fillColor=#eeeeee;strokeColor=#36393d;" parent="1" vertex="1">
          <mxGeometry x="410" y="250" width="90" height="30" as="geometry" />
        </mxCell>
        <mxCell id="QJOgdPk48UH-hE7zh8gi-23" value="" style="rounded=0;whiteSpace=wrap;html=1;fillColor=#eeeeee;strokeColor=#36393d;" parent="1" vertex="1">
          <mxGeometry x="415" y="255" width="90" height="30" as="geometry" />
        </mxCell>
        <mxCell id="QJOgdPk48UH-hE7zh8gi-24" value="&lt;span style=&quot;font-family: 楷体-简;&quot;&gt;就绪队列&lt;/span&gt;" style="rounded=0;whiteSpace=wrap;html=1;fillColor=#eeeeee;strokeColor=#36393d;" parent="1" vertex="1">
          <mxGeometry x="420" y="260" width="90" height="30" as="geometry" />
        </mxCell>
        <mxCell id="QJOgdPk48UH-hE7zh8gi-25" value="" style="endArrow=none;dashed=1;html=1;dashPattern=1 3;strokeWidth=2;rounded=0;" parent="1" source="QJOgdPk48UH-hE7zh8gi-24" target="QJOgdPk48UH-hE7zh8gi-21" edge="1">
          <mxGeometry width="50" height="50" relative="1" as="geometry">
            <mxPoint x="510" y="310" as="sourcePoint" />
            <mxPoint x="560" y="260" as="targetPoint" />
          </mxGeometry>
        </mxCell>
        <mxCell id="QJOgdPk48UH-hE7zh8gi-26" value="" style="html=1;verticalLabelPosition=bottom;align=center;labelBackgroundColor=#ffffff;verticalAlign=top;strokeWidth=2;strokeColor=#666666;shadow=0;dashed=0;shape=mxgraph.ios7.icons.reload;rotation=135;fillColor=#f5f5f5;gradientColor=#b3b3b3;" parent="1" vertex="1">
          <mxGeometry x="443" y="203" width="24" height="27" as="geometry" />
        </mxCell>
        <mxCell id="QJOgdPk48UH-hE7zh8gi-27" value="&lt;font face=&quot;Times New Roman&quot;&gt;Fetch Loop&lt;/font&gt;" style="text;html=1;align=center;verticalAlign=middle;whiteSpace=wrap;rounded=0;" parent="1" vertex="1">
          <mxGeometry x="427.5" y="175" width="60" height="30" as="geometry" />
        </mxCell>
        <mxCell id="QJOgdPk48UH-hE7zh8gi-29" value="&lt;b style=&quot;&quot;&gt;&lt;font face=&quot;Times New Roman&quot;&gt;App2 &lt;/font&gt;&lt;font face=&quot;宋体-简&quot;&gt;执行器&lt;/font&gt;&lt;/b&gt;" style="text;html=1;align=center;verticalAlign=middle;whiteSpace=wrap;rounded=0;" parent="1" vertex="1">
          <mxGeometry x="417.5" y="153" width="80" height="30" as="geometry" />
        </mxCell>
        <mxCell id="QJOgdPk48UH-hE7zh8gi-30" value="&lt;i&gt;&lt;font face=&quot;楷体-简&quot;&gt;绑定&lt;/font&gt;&lt;/i&gt;" style="text;html=1;align=center;verticalAlign=middle;whiteSpace=wrap;rounded=0;" parent="1" vertex="1">
          <mxGeometry x="530" y="232.5" width="60" height="35" as="geometry" />
        </mxCell>
        <mxCell id="QJOgdPk48UH-hE7zh8gi-31" value="&lt;span style=&quot;font-family: 宋体-简;&quot;&gt;分发协程&lt;/span&gt;" style="shape=note;whiteSpace=wrap;html=1;backgroundOutline=1;darkOpacity=0.05;size=19;" parent="1" vertex="1">
          <mxGeometry x="510" y="175" width="60" height="50" as="geometry" />
        </mxCell>
        <mxCell id="QJOgdPk48UH-hE7zh8gi-32" value="" style="endArrow=none;dashed=1;html=1;dashPattern=1 3;strokeWidth=2;rounded=0;exitX=0.966;exitY=-0.091;exitDx=0;exitDy=0;entryX=0.404;entryY=0.989;entryDx=0;entryDy=0;entryPerimeter=0;exitPerimeter=0;" parent="1" source="QJOgdPk48UH-hE7zh8gi-22" target="QJOgdPk48UH-hE7zh8gi-31" edge="1">
          <mxGeometry width="50" height="50" relative="1" as="geometry">
            <mxPoint x="520" y="277" as="sourcePoint" />
            <mxPoint x="600" y="263" as="targetPoint" />
          </mxGeometry>
        </mxCell>
        <mxCell id="QJOgdPk48UH-hE7zh8gi-33" value="&lt;font face=&quot;Times New Roman&quot;&gt;1&lt;/font&gt;" style="rounded=0;whiteSpace=wrap;html=1;fillColor=#fff2cc;strokeColor=#d6b656;" parent="1" vertex="1">
          <mxGeometry x="415" y="232.5" width="10" height="10" as="geometry" />
        </mxCell>
        <mxCell id="QJOgdPk48UH-hE7zh8gi-34" value="&lt;font face=&quot;Times New Roman&quot;&gt;0&lt;/font&gt;" style="rounded=0;whiteSpace=wrap;html=1;fillColor=#fff2cc;strokeColor=#d6b656;" parent="1" vertex="1">
          <mxGeometry x="425" y="232.5" width="10" height="10" as="geometry" />
        </mxCell>
        <mxCell id="QJOgdPk48UH-hE7zh8gi-35" value="&lt;font face=&quot;Times New Roman&quot;&gt;0&lt;/font&gt;" style="rounded=0;whiteSpace=wrap;html=1;fillColor=#fff2cc;strokeColor=#d6b656;" parent="1" vertex="1">
          <mxGeometry x="435" y="232.5" width="10" height="10" as="geometry" />
        </mxCell>
        <mxCell id="QJOgdPk48UH-hE7zh8gi-36" value="&lt;font face=&quot;Times New Roman&quot;&gt;1&lt;/font&gt;" style="rounded=0;whiteSpace=wrap;html=1;fillColor=#fff2cc;strokeColor=#d6b656;" parent="1" vertex="1">
          <mxGeometry x="445" y="232.5" width="10" height="10" as="geometry" />
        </mxCell>
        <mxCell id="QJOgdPk48UH-hE7zh8gi-37" value="&lt;font face=&quot;Times New Roman&quot;&gt;0&lt;/font&gt;" style="rounded=0;whiteSpace=wrap;html=1;fillColor=#fff2cc;strokeColor=#d6b656;" parent="1" vertex="1">
          <mxGeometry x="455" y="232.5" width="10" height="10" as="geometry" />
        </mxCell>
        <mxCell id="QJOgdPk48UH-hE7zh8gi-38" value="&lt;font face=&quot;Times New Roman&quot;&gt;0&lt;/font&gt;" style="rounded=0;whiteSpace=wrap;html=1;fillColor=#fff2cc;strokeColor=#d6b656;" parent="1" vertex="1">
          <mxGeometry x="465" y="232.5" width="10" height="10" as="geometry" />
        </mxCell>
        <mxCell id="QJOgdPk48UH-hE7zh8gi-39" value="&lt;font face=&quot;Times New Roman&quot;&gt;1&lt;/font&gt;" style="rounded=0;whiteSpace=wrap;html=1;fillColor=#fff2cc;strokeColor=#d6b656;" parent="1" vertex="1">
          <mxGeometry x="475" y="232.5" width="10" height="10" as="geometry" />
        </mxCell>
        <mxCell id="QJOgdPk48UH-hE7zh8gi-40" value="&lt;font face=&quot;Times New Roman&quot;&gt;0&lt;/font&gt;" style="rounded=0;whiteSpace=wrap;html=1;fillColor=#fff2cc;strokeColor=#d6b656;" parent="1" vertex="1">
          <mxGeometry x="485" y="232.5" width="10" height="10" as="geometry" />
        </mxCell>
        <mxCell id="QJOgdPk48UH-hE7zh8gi-42" value="" style="endArrow=classic;html=1;rounded=0;exitX=0.5;exitY=1;exitDx=0;exitDy=0;exitPerimeter=0;entryX=0.835;entryY=-0.004;entryDx=0;entryDy=0;entryPerimeter=0;" parent="1" source="QJOgdPk48UH-hE7zh8gi-21" target="amXWST7B3BwliGPZbZjy-15" edge="1">
          <mxGeometry width="50" height="50" relative="1" as="geometry">
            <mxPoint x="570" y="470" as="sourcePoint" />
            <mxPoint x="620" y="420" as="targetPoint" />
            <Array as="points">
              <mxPoint x="620" y="280" />
              <mxPoint x="573" y="280" />
            </Array>
          </mxGeometry>
        </mxCell>
        <mxCell id="QJOgdPk48UH-hE7zh8gi-43" value="" style="endArrow=classic;html=1;rounded=0;exitX=0.5;exitY=1;exitDx=0;exitDy=0;exitPerimeter=0;entryX=0.836;entryY=0.022;entryDx=0;entryDy=0;entryPerimeter=0;" parent="1" source="QJOgdPk48UH-hE7zh8gi-31" target="amXWST7B3BwliGPZbZjy-15" edge="1">
          <mxGeometry width="50" height="50" relative="1" as="geometry">
            <mxPoint x="510" y="440" as="sourcePoint" />
            <mxPoint x="560" y="390" as="targetPoint" />
            <Array as="points">
              <mxPoint x="540" y="280" />
              <mxPoint x="573" y="280" />
            </Array>
          </mxGeometry>
        </mxCell>
        <mxCell id="QJOgdPk48UH-hE7zh8gi-44" value="&lt;font style=&quot;font-family: &amp;quot;Times New Roman&amp;quot;; font-size: 10px;&quot;&gt;②&amp;nbsp;&lt;/font&gt;&lt;i style=&quot;&quot;&gt;&lt;font face=&quot;宋体-简&quot;&gt;发送&lt;/font&gt;&lt;/i&gt;&lt;div&gt;&lt;font face=&quot;Times New Roman&quot;&gt;&lt;i&gt;U-notification&lt;/i&gt;&lt;/font&gt;&lt;/div&gt;" style="text;html=1;align=center;verticalAlign=middle;whiteSpace=wrap;rounded=0;" parent="1" vertex="1">
          <mxGeometry x="550" y="290" width="120" height="30" as="geometry" />
        </mxCell>
        <mxCell id="QJOgdPk48UH-hE7zh8gi-45" value="" style="endArrow=none;dashed=1;html=1;dashPattern=1 3;strokeWidth=2;rounded=0;exitX=0.446;exitY=0.977;exitDx=0;exitDy=0;entryX=0.623;entryY=0;entryDx=0;entryDy=0;entryPerimeter=0;exitPerimeter=0;strokeColor=light-dark(#f50505, #ededed);" parent="1" source="QJOgdPk48UH-hE7zh8gi-24" target="amXWST7B3BwliGPZbZjy-15" edge="1">
          <mxGeometry width="50" height="50" relative="1" as="geometry">
            <mxPoint x="507" y="257" as="sourcePoint" />
            <mxPoint x="544" y="234" as="targetPoint" />
          </mxGeometry>
        </mxCell>
        <mxCell id="QJOgdPk48UH-hE7zh8gi-46" value="&lt;i&gt;&lt;font face=&quot;楷体-简&quot;&gt;绑定&lt;/font&gt;&lt;/i&gt;" style="text;html=1;align=center;verticalAlign=middle;whiteSpace=wrap;rounded=0;" parent="1" vertex="1">
          <mxGeometry x="450" y="295" width="60" height="35" as="geometry" />
        </mxCell>
        <mxCell id="uzSNpqsZdtq4xzD49M8t-1" value="" style="endArrow=classic;html=1;rounded=0;exitX=0.259;exitY=-0.045;exitDx=0;exitDy=0;entryX=0.465;entryY=1;entryDx=0;entryDy=0;entryPerimeter=0;exitPerimeter=0;" parent="1" source="amXWST7B3BwliGPZbZjy-15" target="QJOgdPk48UH-hE7zh8gi-2" edge="1">
          <mxGeometry width="50" height="50" relative="1" as="geometry">
            <mxPoint x="440" y="490" as="sourcePoint" />
            <mxPoint x="490" y="440" as="targetPoint" />
          </mxGeometry>
        </mxCell>
        <mxCell id="uzSNpqsZdtq4xzD49M8t-5" value="" style="endArrow=classic;html=1;rounded=0;strokeColor=light-dark(#fe0101, #ededed);" parent="1" edge="1">
          <mxGeometry width="50" height="50" relative="1" as="geometry">
            <mxPoint x="710" y="193" as="sourcePoint" />
            <mxPoint x="680" y="193" as="targetPoint" />
            <Array as="points">
              <mxPoint x="680" y="193" />
            </Array>
          </mxGeometry>
        </mxCell>
        <mxCell id="uzSNpqsZdtq4xzD49M8t-6" value="" style="endArrow=none;dashed=1;html=1;dashPattern=1 3;strokeWidth=2;rounded=0;strokeColor=light-dark(#f50505, #ededed);" parent="1" edge="1">
          <mxGeometry width="50" height="50" relative="1" as="geometry">
            <mxPoint x="710" y="202.71" as="sourcePoint" />
            <mxPoint x="680" y="202.71" as="targetPoint" />
            <Array as="points">
              <mxPoint x="710" y="202.71" />
            </Array>
          </mxGeometry>
        </mxCell>
        <mxCell id="uzSNpqsZdtq4xzD49M8t-7" value="&lt;font face=&quot;Times New Roman&quot;&gt;TAIC &lt;/font&gt;&lt;font face=&quot;宋体-简&quot;&gt;专用&lt;/font&gt;" style="text;html=1;align=center;verticalAlign=middle;whiteSpace=wrap;rounded=0;" parent="1" vertex="1">
          <mxGeometry x="710" y="178" width="60" height="30" as="geometry" />
        </mxCell>
        <mxCell id="uzSNpqsZdtq4xzD49M8t-8" value="" style="rounded=0;whiteSpace=wrap;html=1;fillColor=#fff2cc;strokeColor=#d6b656;" parent="1" vertex="1">
          <mxGeometry x="690" y="220" width="10" height="10" as="geometry" />
        </mxCell>
        <mxCell id="uzSNpqsZdtq4xzD49M8t-10" value="&lt;font face=&quot;Times New Roman&quot;&gt;UINTC &lt;/font&gt;&lt;font face=&quot;宋体-简&quot;&gt;专用&lt;/font&gt;" style="text;html=1;align=center;verticalAlign=middle;whiteSpace=wrap;rounded=0;" parent="1" vertex="1">
          <mxGeometry x="710" y="210" width="70" height="30" as="geometry" />
        </mxCell>
        <mxCell id="uzSNpqsZdtq4xzD49M8t-11" value="" style="endArrow=classic;html=1;rounded=0;strokeColor=light-dark(#050505, #ededed);" parent="1" edge="1">
          <mxGeometry width="50" height="50" relative="1" as="geometry">
            <mxPoint x="710" y="165" as="sourcePoint" />
            <mxPoint x="680" y="165" as="targetPoint" />
            <Array as="points">
              <mxPoint x="680" y="165" />
            </Array>
          </mxGeometry>
        </mxCell>
        <mxCell id="uzSNpqsZdtq4xzD49M8t-12" value="" style="endArrow=none;dashed=1;html=1;dashPattern=1 3;strokeWidth=2;rounded=0;strokeColor=light-dark(#080808, #ededed);" parent="1" edge="1">
          <mxGeometry width="50" height="50" relative="1" as="geometry">
            <mxPoint x="710" y="174.71" as="sourcePoint" />
            <mxPoint x="680" y="174.71" as="targetPoint" />
            <Array as="points">
              <mxPoint x="710" y="174.71" />
            </Array>
          </mxGeometry>
        </mxCell>
        <mxCell id="uzSNpqsZdtq4xzD49M8t-13" value="&lt;font face=&quot;楷体-简&quot;&gt;通用流程&lt;/font&gt;" style="text;html=1;align=center;verticalAlign=middle;whiteSpace=wrap;rounded=0;" parent="1" vertex="1">
          <mxGeometry x="710" y="150" width="60" height="30" as="geometry" />
        </mxCell>
      </root>
    </mxGraphModel>
  </diagram>
</mxfile>
